<svg id="Layer_1" data-name="Layer 1" xmlns="http://www.w3.org/2000/svg" viewBox="0 0 32.65 28.23"><defs><style>.cls-1{fill:#86262e;}.cls-2{fill:#86272c;}.cls-3{fill:#7d1416;}.cls-4{fill:#801921;}.cls-5{fill:#7d1818;}.cls-6{fill:#85262c;}.cls-7{fill:#79191a;}.cls-8{fill:#7f1e20;}.cls-9{fill:#7c181a;}.cls-10{fill:#751213;}.cls-11{fill:#771214;}.cls-12{fill:#7d1517;}.cls-13{fill:#7b1415;}.cls-14{fill:#f0e8e6;}.cls-15{fill:#7e151c;}.cls-16{fill:#7e1517;}.cls-17{fill:#8c191e;}.cls-18{fill:#771314;}.cls-19{fill:#7a1415;}.cls-20{fill:#ad7779;}.cls-21{fill:#761213;}.cls-22{fill:#821d21;}.cls-23{fill:#7f191f;}</style></defs><path class="cls-1" d="M143.71,96.51c.13.49.2,1,.93.95a3.46,3.46,0,0,0,3-1.09c1-1.17,2.73-1,4.17-1.15.87-.09,1.12.6.67,1.35a3.34,3.34,0,0,1-1.84,1.56,6.68,6.68,0,0,0-3.83,3.56,11.73,11.73,0,0,0-.42,1.75c-.06,1,0,2,0,3.07v3.86a9,9,0,0,1-.34,2.83c-.12.3-.08.5,0,.18,0-.13.25-.18.42-.2,1.22,1.25,1.47,3.13,2.87,4.24.3.58.63,1,1.23.27.2-.09.6-.12.45-.38-.26-.42-.38.29-.66.17a1.43,1.43,0,0,1-.63-.34,4,4,0,0,1-.7-2.62c0-1.39,0-2.78,0-4.18s0-2.52,0-3.78c0-1.06,0-2.12,0-3.18-.18-1.4.75-2.67.51-4.08.23-.86.81-1.33,1.62-.87a2.88,2.88,0,0,1,1.45,2.65c0,.78-.7,1.28-.82,2-.17.31.33.33,0,.19,0,0,0-.08,0-.18a1.69,1.69,0,0,1,.82-1.17c1-.41,1.32.2,1.49,1-1.08,2.88-.65,5.87-.69,8.82.1.34.38-.15.09,0-.08.05-.15,0-.13-.17.27-2.24-.52-4.54.42-6.73l.4.13c.05,4.12-.62,8.35,1.8,12.22,1.41-.76.63-2.8,2.07-3.46.46,1.15,1.44-.12,2,.43a2.7,2.7,0,0,1,.73,3.69c.55-.09.26-1.44,1.3-1,0,.74-.24,1.72,1,1a11.49,11.49,0,0,0,1.79-1.64c1-.79,1.33-2.78,3.31-1.9,1.71.26,1.85,1.24,1.36,2.67-.41,1.21-1.68,1.79-2,3-1.47,1.65-3.16,2.88-5.52,2.78a7.38,7.38,0,0,0-3.93,0h-4a10.19,10.19,0,0,0-4.43,0,7.83,7.83,0,0,1-4.63-2c-1-.73-1.23-.44-1.37.54a3.87,3.87,0,0,1-4.6,0,3.44,3.44,0,0,1-.32-1.92q0-10.69,0-21.41a4,4,0,0,1,.22-1.69C140.64,95.26,142.23,94.94,143.71,96.51Z" transform="translate(-138.28 -94.6)"/><path class="cls-1" d="M163.06,95c4.87,1.06,6.92,3.37,7.43,8.4-1.78.35-3.56.72-5-.87a21.13,21.13,0,0,1-1.25-2,1.49,1.49,0,0,0-1.65-1c-1.19.22-.06,1.2-.45,1.73.68,2-.07,2.6-2,2.45a11,11,0,0,1-2.53-.64,8.22,8.22,0,0,0-.46-1.1c-.23-.4-.51-1-.83-1.07-.65-.09-.87.6-1.06,1.11-.36,1-.65,2-1,3l-.2-.13a7.64,7.64,0,0,1-.1-2.24c.23-1.23-1.1-1.47-1.55-2.33a3.52,3.52,0,0,1,.28-3.68c.67-1.24,1.69-1.08,2.78-.81A30.51,30.51,0,0,1,163.06,95Z" transform="translate(-138.28 -94.6)"/><path class="cls-2" d="M155.15,96c-1.85-.42-2.05,1.09-2.58,2.2s.1,2,1,2.67c.51.41,1.54.61.61,1.56-.15.23-.31.24-.47,0-1.6-.63-1.49.49-1.41,1.44.05.58.32,1.32-.53,1.27s-.6-.92-.48-1.42c.18-.78.59-1.51.84-2.28.37-1.13-.43-1.89-1.06-2.58s-1,.07-1.33.48a5.27,5.27,0,0,1-2.85,2.36,1,1,0,0,1-.62-.27c1-1.58,1.76-3.24,4-3.59,1-.16,1.73-1.09,2.29-2.46-1.91,1-4.26-.16-5.35,2.49-.43,1.07-1.66,0-2.48-.44,1.6-1.14,3-2.65,5.27-2.45a10.49,10.49,0,0,1,4.53,0c.42-.23.69-.14.76.36C155.43,95.61,155.42,95.83,155.15,96Z" transform="translate(-138.28 -94.6)"/><path class="cls-3" d="M139.29,96v25.17c.31.61.36,1.08-.57,1-.72-.68-.34-1.56-.34-2.33,0-7.33.08-14.65-.08-22-.06-2.36.57-3.37,2.95-2.87.8.17,1.8-.59,2.42.48C142.27,96.21,140.68,95.31,139.29,96Z" transform="translate(-138.28 -94.6)"/><path class="cls-4" d="M138.72,122.23a1,1,0,0,0,.57-1h4.42c0,.66.12,1.42-.9,1.32C141.45,122.41,140,122.91,138.72,122.23Z" transform="translate(-138.28 -94.6)"/><path class="cls-5" d="M168,114.31c-1,0-1.76.15-2,1.3-.11.5-.27,1.26-1.06.5.46-.8,0-2.25,1.09-2.46a12,12,0,0,1,4.38,0c.91.16.32,1,.12,1.6C169.66,115.1,169,114.33,168,114.31Z" transform="translate(-138.28 -94.6)"/><path class="cls-6" d="M162.16,116.8l-1.5,1.72a6.75,6.75,0,0,0-.56-4.2c2.1-1,2.28.43,2.38,1.93Z" transform="translate(-138.28 -94.6)"/><path class="cls-7" d="M157.56,103.08c.16-.61.19-1,1-.36,2,1.54,3.27,1,3.56-1.45.67.82,1.27,1.8.48,2.72C162,104.73,158.11,103.91,157.56,103.08Z" transform="translate(-138.28 -94.6)"/><path class="cls-8" d="M168,114.31a2.56,2.56,0,0,1,2.53,1,5.86,5.86,0,0,1-3,4.59c-.15-1,.63-1.45,1.1-2.1C169.69,116.41,170,115.13,168,114.31Z" transform="translate(-138.28 -94.6)"/><path class="cls-9" d="M162.48,116.25c-.42-1.11-.71-2.36-2.38-1.93-.48-.82-2,1.86-2-.59a21.88,21.88,0,0,0,2.43-.17C163.05,113.14,163.27,114.31,162.48,116.25Z" transform="translate(-138.28 -94.6)"/><path class="cls-10" d="M155.15,96c0-.21,0-.43,0-.65,1,.53,1.75-.82,2.75-.4a11.62,11.62,0,0,1,4.32,0l.79.08C160.49,95.9,157.76,95.52,155.15,96Z" transform="translate(-138.28 -94.6)"/><path class="cls-11" d="M165.49,102.57l.3-.61c1,2.26,3.05,1.23,4.7,1.48C168.46,104.81,165.86,104.35,165.49,102.57Z" transform="translate(-138.28 -94.6)"/><path class="cls-10" d="M139.29,96c1.34-1.16,2.94-.17,4.38-.51l0,1C142.3,95.7,140.77,96.13,139.29,96Z" transform="translate(-138.28 -94.6)"/><path class="cls-12" d="M149.71,122.64a4.9,4.9,0,0,1,4.43,0A13.44,13.44,0,0,1,149.71,122.64Z" transform="translate(-138.28 -94.6)"/><path class="cls-1" d="M154.44,95h-4.53A6.42,6.42,0,0,1,154.44,95Z" transform="translate(-138.28 -94.6)"/><path class="cls-1" d="M162.27,95H158A6.73,6.73,0,0,1,162.27,95Z" transform="translate(-138.28 -94.6)"/><path class="cls-13" d="M158.14,122.67a3.85,3.85,0,0,1,3.93,0A11.53,11.53,0,0,1,158.14,122.67Z" transform="translate(-138.28 -94.6)"/><path class="cls-14" d="M146.94,101.53c1-.58,1.48-1.88,2.75-2.16.95.06.84.61.48,1.17a2.92,2.92,0,0,0-.5,2.32c-.46.7-.06,1.54-.37,2.26a52.43,52.43,0,0,0,0,7.52c.27.75-.05,1.58.33,2.31a2.63,2.63,0,0,0,.64,2.25c0,.91-.52.86-1.15.64-1.7-1.08-2.16-2.92-2.85-4.62-.59-.76-.17-1.64-.3-2.45v-4.2c0-.83,0-1.66,0-2.48C146.43,103.28,146,102.16,146.94,101.53Z" transform="translate(-138.28 -94.6)"/><path class="cls-15" d="M149.13,112.94a14.34,14.34,0,0,1,0-8.16c.6.39.06,1.18.56,1.61v4C149.05,111.12,149.85,112.19,149.13,112.94Z" transform="translate(-138.28 -94.6)"/><path class="cls-16" d="M153.66,102.46h.47c0,.8-.07,1.6-.1,2.39-.94,2.42,0,5-.63,7.44A33.34,33.34,0,0,1,153.66,102.46Z" transform="translate(-138.28 -94.6)"/><path class="cls-17" d="M146.17,106.4v4.45c-.15.21-.3.21-.45,0V106.4Q145.95,106.07,146.17,106.4Z" transform="translate(-138.28 -94.6)"/><path class="cls-18" d="M149.13,112.94c.26-.85-.28-1.86.56-2.58,0,1.53,0,3.06-.05,4.59C148.85,114.44,149.15,113.65,149.13,112.94Z" transform="translate(-138.28 -94.6)"/><path class="cls-19" d="M145.72,110.84h.45l.11,2.37-.23,1.06-.33,0Z" transform="translate(-138.28 -94.6)"/><path class="cls-20" d="M149.13,117.84c.5,0,1,0,1.15-.64a.92.92,0,0,1,.4.07.43.43,0,0,1,.17.52C150.32,119.05,149.76,119.5,149.13,117.84Z" transform="translate(-138.28 -94.6)"/><path class="cls-18" d="M146.17,106.4h-.45c0-1.15,0-2.3,0-3.45,1,0,.63.66.56,1.18Z" transform="translate(-138.28 -94.6)"/><path class="cls-21" d="M149.68,106.39c-.6-.39-.42-1.06-.56-1.61,0-.69-.3-1.47.55-1.92C149.67,104,149.68,105.21,149.68,106.39Z" transform="translate(-138.28 -94.6)"/><path class="cls-22" d="M146.29,104.13c-.1-.44-.1-.92-.56-1.18.16-.5.33-1,.49-1.49l.72.07A4.19,4.19,0,0,1,146.29,104.13Z" transform="translate(-138.28 -94.6)"/><path class="cls-23" d="M150.85,117.79l-.17-.52c.12-.2,0-.84.44-.45a1.31,1.31,0,0,1,.44,1.51Z" transform="translate(-138.28 -94.6)"/></svg>